<?xml version="1.0" encoding="UTF-8"?>
<svg width="96px" height="29px" viewBox="0 0 96 29" version="1.1" xmlns="http://www.w3.org/2000/svg" xmlns:xlink="http://www.w3.org/1999/xlink">
    <title>Reservia</title>
    <g id="Page-1" stroke="none" stroke-width="1" fill="none" fill-rule="evenodd">
        <g id="Reservia" fill="#0065FC" fill-rule="nonzero">
            <path d="M12.6523,21.3789 C12.418,20.6523 12.1836,20.0078 11.9492,19.4453 C11.7383,18.8828 11.5508,18.4023 11.3867,18.0039 C10.4727,18.3086 9.47656,18.5195 8.39844,18.6367 C8.39844,20.1367 8.43359,21.4141 8.50391,22.4688 C8.52734,23.125 8.55078,23.6875 8.57422,24.1562 C8.62109,24.6016 8.65625,24.9883 8.67969,25.3164 C8.72656,25.6445 8.77344,25.9375 8.82031,26.1953 C8.86719,26.4766 8.9375,26.7461 9.03125,27.0039 C8.5625,27.3555 8.10547,27.6133 7.66016,27.7773 C7.23828,27.9414 6.86328,28.0586 6.53516,28.1289 C6.13672,28.2227 5.78516,28.2461 5.48047,28.1992 C5.36328,27.8711 5.25781,27.5195 5.16406,27.1445 C5.07031,26.793 5,26.3008 4.95312,25.668 C4.92969,25.0586 4.91797,24.2734 4.91797,23.3125 C4.91797,22.3516 4.95312,21.1211 5.02344,19.6211 C5.04688,19.457 5.05859,19.293 5.05859,19.1289 C5.05859,18.9648 5.07031,18.8008 5.09375,18.6367 C4.88281,18.6133 4.66016,18.5898 4.42578,18.5664 C4.21484,18.543 4.00391,18.5195 3.79297,18.4961 C3.65234,18.1211 3.55859,17.793 3.51172,17.5117 C3.46484,17.207 3.44141,16.9609 3.44141,16.7734 C3.44141,16.5391 3.46484,16.3516 3.51172,16.2109 C3.88672,16.2812 4.26172,16.3164 4.63672,16.3164 L5.16406,16.3164 C5.21094,15.332 5.25781,14.3359 5.30469,13.3281 C5.35156,12.2969 5.38672,11.3008 5.41016,10.3398 C5.45703,9.3555 5.49219,8.4297 5.51562,7.5625 C5.53906,6.6719 5.5625,5.8633 5.58594,5.1367 C4.88281,5.6055 4.27344,6.2148 3.75781,6.9648 C3.24219,7.7148 2.89062,8.582 2.70312,9.5664 C2.39844,9.5195 2.14062,9.3789 1.92969,9.1445 C1.71875,8.8867 1.54297,8.6289 1.40234,8.3711 C1.23828,8.0664 1.09766,7.7266 0.980469,7.3516 C0.863281,6.9063 0.863281,6.4609 0.980469,6.0156 C1.09766,5.5469 1.27344,5.1133 1.50781,4.7148 C1.74219,4.293 2.01172,3.9297 2.31641,3.625 C2.62109,3.2969 2.91406,3.0391 3.19531,2.8516 C3.6875,2.5469 4.19141,2.2773 4.70703,2.043 C5.24609,1.78516 5.84375,1.57422 6.5,1.41016 C6.75781,1.15234 7.03906,0.91797 7.34375,0.70703 C7.67188,0.49609 7.97656,0.36719 8.25781,0.32031 C8.65625,0.22656 8.87891,0.47266 8.92578,1.05859 C9.13672,1.03516 9.35938,1.02344 9.59375,1.02344 C9.82812,1 10.0742,0.98828 10.332,0.98828 C11.2227,0.98828 12.1484,1.12891 13.1094,1.41016 C14.0703,1.69141 14.9492,2.1484 15.7461,2.7812 C16.5664,3.3906 17.2344,4.1992 17.75,5.207 C18.2656,6.1914 18.5234,7.3984 18.5234,8.8281 C18.5234,10.4453 18.1367,11.9336 17.3633,13.293 C16.6133,14.6523 15.5352,15.7773 14.1289,16.668 C14.293,17.0898 14.5039,17.6172 14.7617,18.25 C15.0195,18.8828 15.2773,19.5977 15.5352,20.3945 C15.9102,21.3789 16.3086,22.3047 16.7305,23.1719 C17.1758,24.0156 17.6328,24.7539 18.1016,25.3867 C18.5703,26.0195 19.0625,26.5234 19.5781,26.8984 C20.0938,27.2969 20.6094,27.5312 21.125,27.6016 C20.8203,28.0703 20.4688,28.3984 20.0703,28.5859 C19.6719,28.7734 19.2734,28.8906 18.875,28.9375 C18.4297,29.0078 17.9609,29.0078 17.4688,28.9375 C16.7891,28.7969 16.2031,28.4688 15.7109,27.9531 C15.2188,27.4375 14.7852,26.8164 14.4102,26.0898 C14.0586,25.3633 13.7305,24.5898 13.4258,23.7695 C13.1445,22.9258 12.8867,22.1289 12.6523,21.3789 Z M8.57422,6.4023 C8.57422,6.918 8.5625,7.5391 8.53906,8.2656 C8.51562,8.9922 8.49219,9.7773 8.46875,10.6211 C8.46875,11.4648 8.45703,12.3555 8.43359,13.293 C8.41016,14.207 8.39844,15.1211 8.39844,16.0352 C9.03125,15.9414 9.72266,15.7891 10.4727,15.5781 C11.2461,15.3672 11.9609,15.0156 12.6172,14.5234 C13.2734,14.0312 13.8242,13.375 14.2695,12.5547 C14.7148,11.7344 14.9375,10.6797 14.9375,9.3906 C14.9375,8.4062 14.7617,7.5742 14.4102,6.8945 C14.082,6.1914 13.6484,5.6289 13.1094,5.207 C12.5703,4.7617 11.9727,4.4453 11.3164,4.2578 C10.6836,4.0469 10.0508,3.9414 9.41797,3.9414 C9.30078,3.9414 9.18359,3.9414 9.06641,3.9414 C8.94922,3.9414 8.82031,3.9531 8.67969,3.9766 C8.60938,4.7266 8.57422,5.5352 8.57422,6.4023 Z M25.168,25.3867 C23.5273,25.3867 22.2617,24.8359 21.3711,23.7344 C20.4805,22.6328 20.0352,21.1914 20.0352,19.4102 C20.0352,18.168 20.2109,17.0078 20.5625,15.9297 C20.9375,14.8281 21.4297,13.8789 22.0391,13.082 C22.6484,12.2852 23.3516,11.6641 24.1484,11.2188 C24.9688,10.75 25.8242,10.5156 26.7148,10.5156 C27.582,10.5156 28.3203,10.832 28.9297,11.4648 C29.5391,12.0742 29.8438,12.9531 29.8438,14.1016 C29.8438,14.8516 29.6797,15.6016 29.3516,16.3516 C29.0234,17.0781 28.5898,17.7344 28.0508,18.3203 C27.5352,18.8828 26.9609,19.3398 26.3281,19.6914 C25.6953,20.043 25.0859,20.2188 24.5,20.2188 C24.125,20.2188 23.8086,20.1719 23.5508,20.0781 C23.293,19.9844 23.0586,19.8438 22.8477,19.6562 C22.918,20.9922 23.2109,21.9297 23.7266,22.4688 C24.2422,22.9844 24.9102,23.2422 25.7305,23.2422 C26.293,23.2422 26.7852,23.125 27.207,22.8906 C27.6523,22.6562 28.0273,22.3867 28.332,22.082 C28.6367,21.7773 28.8828,21.4727 29.0703,21.168 C29.2578,20.8398 29.3867,20.5938 29.457,20.4297 C29.5273,20.2891 29.6445,20.2188 29.8086,20.2188 C29.9961,20.2188 30.0898,20.3594 30.0898,20.6406 C30.0898,20.8984 29.9961,21.2969 29.8086,21.8359 C29.6445,22.3516 29.3633,22.8789 28.9648,23.418 C28.5664,23.9336 28.0508,24.3906 27.418,24.7891 C26.8086,25.1875 26.0586,25.3867 25.168,25.3867 Z M26.7852,12.0273 C26.6445,12.0273 26.375,12.1797 25.9766,12.4844 C25.6016,12.7656 25.1914,13.1875 24.7461,13.75 C24.3242,14.3125 23.9258,14.9922 23.5508,15.7891 C23.1992,16.5625 22.9766,17.4414 22.8828,18.4258 C24.2891,18.0977 25.4023,17.582 26.2227,16.8789 C27.043,16.1758 27.4531,15.1445 27.4531,13.7852 C27.4531,13.1055 27.3711,12.6484 27.207,12.4141 C27.043,12.1562 26.9023,12.0273 26.7852,12.0273 Z M37.6836,18.3203 C38.1992,18.5078 38.6914,18.6836 39.1602,18.8477 C39.6289,19.0117 40.0391,19.2109 40.3906,19.4453 C40.7422,19.6797 41.0234,19.9609 41.2344,20.2891 C41.4453,20.5938 41.5508,20.9805 41.5508,21.4492 C41.5508,22.0117 41.4219,22.5391 41.1641,23.0312 C40.9297,23.5234 40.5781,23.957 40.1094,24.332 C39.6406,24.707 39.0664,25 38.3867,25.2109 C37.7305,25.4453 36.9922,25.5625 36.1719,25.5625 C35.2578,25.5625 34.5195,25.4688 33.957,25.2812 C33.3945,25.1172 32.9609,24.918 32.6562,24.6836 C32.3516,24.4492 32.1523,24.2148 32.0586,23.9805 C31.9648,23.7461 31.918,23.5586 31.918,23.418 C31.918,23.1367 31.9766,22.832 32.0938,22.5039 C32.2109,22.1523 32.4336,21.7773 32.7617,21.3789 C32.9023,21.2148 33.0547,21.0625 33.2188,20.9219 C33.5469,20.6406 33.875,20.4648 34.2031,20.3945 C34.1562,20.9336 34.2148,21.3789 34.3789,21.7305 C34.5664,22.0586 34.8008,22.3164 35.082,22.5039 C35.3867,22.6914 35.7148,22.8203 36.0664,22.8906 C36.4414,22.9609 36.793,22.9961 37.1211,22.9961 C37.4492,22.9961 37.7773,22.9492 38.1055,22.8555 C38.457,22.7617 38.7734,22.6445 39.0547,22.5039 C39.3359,22.3398 39.5586,22.1641 39.7227,21.9766 C39.9102,21.7656 40.0039,21.543 40.0039,21.3086 C40.0039,21.0508 39.8984,20.8398 39.6875,20.6758 C39.4766,20.5117 39.207,20.3828 38.8789,20.2891 C38.5742,20.1719 38.2344,20.0898 37.8594,20.043 C37.5078,19.9727 37.168,19.9023 36.8398,19.832 C36.5117,19.7617 36.0664,19.668 35.5039,19.5508 C34.9648,19.4102 34.4258,19.1992 33.8867,18.918 C33.3711,18.6367 32.9141,18.2617 32.5156,17.793 C32.1406,17.3242 31.9531,16.7031 31.9531,15.9297 C31.9531,15.0391 32.1758,14.2656 32.6211,13.6094 C33.0898,12.9297 33.6523,12.3672 34.3086,11.9219 C34.9883,11.4531 35.7031,11.1016 36.4531,10.8672 C37.2031,10.6328 37.8711,10.5156 38.457,10.5156 C38.7617,10.5156 39.0898,10.5625 39.4414,10.6562 C39.793,10.7266 40.1211,10.8672 40.4258,11.0781 C40.7305,11.2656 40.9766,11.5234 41.1641,11.8516 C41.375,12.1797 41.4805,12.6016 41.4805,13.1172 C41.4805,13.6328 41.4336,14.0547 41.3398,14.3828 C41.2695,14.6875 41.1523,14.9336 40.9883,15.1211 C40.8477,15.2852 40.6719,15.3906 40.4609,15.4375 C40.25,15.4844 40.0039,15.5078 39.7227,15.5078 C39.5352,15.5078 39.3594,15.4844 39.1953,15.4375 C39.0547,15.3906 38.9023,15.3438 38.7383,15.2969 C38.5742,15.25 38.4219,15.168 38.2812,15.0508 C38.5156,14.7695 38.6914,14.5 38.8086,14.2422 C38.9492,13.9844 39.0195,13.668 39.0195,13.293 C39.0195,12.9648 38.9258,12.6719 38.7383,12.4141 C38.5742,12.1562 38.293,12.0273 37.8945,12.0273 C37.4727,12.0273 37.0625,12.1094 36.6641,12.2734 C36.2891,12.4375 35.9492,12.6602 35.6445,12.9414 C35.3633,13.2227 35.1289,13.5508 34.9414,13.9258 C34.7773,14.2773 34.6953,14.6641 34.6953,15.0859 C34.6953,15.7188 34.9297,16.3164 35.3984,16.8789 C35.8906,17.4414 36.6523,17.9219 37.6836,18.3203 Z M48.3008,25.3867 C46.6602,25.3867 45.3945,24.8359 44.5039,23.7344 C43.6133,22.6328 43.168,21.1914 43.168,19.4102 C43.168,18.168 43.3438,17.0078 43.6953,15.9297 C44.0703,14.8281 44.5625,13.8789 45.1719,13.082 C45.7812,12.2852 46.4844,11.6641 47.2812,11.2188 C48.1016,10.75 48.957,10.5156 49.8477,10.5156 C50.7148,10.5156 51.4531,10.832 52.0625,11.4648 C52.6719,12.0742 52.9766,12.9531 52.9766,14.1016 C52.9766,14.8516 52.8125,15.6016 52.4844,16.3516 C52.1562,17.0781 51.7227,17.7344 51.1836,18.3203 C50.668,18.8828 50.0938,19.3398 49.4609,19.6914 C48.8281,20.043 48.2188,20.2188 47.6328,20.2188 C47.2578,20.2188 46.9414,20.1719 46.6836,20.0781 C46.4258,19.9844 46.1914,19.8438 45.9805,19.6562 C46.0508,20.9922 46.3438,21.9297 46.8594,22.4688 C47.375,22.9844 48.043,23.2422 48.8633,23.2422 C49.4258,23.2422 49.918,23.125 50.3398,22.8906 C50.7852,22.6562 51.1602,22.3867 51.4648,22.082 C51.7695,21.7773 52.0156,21.4727 52.2031,21.168 C52.3906,20.8398 52.5195,20.5938 52.5898,20.4297 C52.6602,20.2891 52.7773,20.2188 52.9414,20.2188 C53.1289,20.2188 53.2227,20.3594 53.2227,20.6406 C53.2227,20.8984 53.1289,21.2969 52.9414,21.8359 C52.7773,22.3516 52.4961,22.8789 52.0977,23.418 C51.6992,23.9336 51.1836,24.3906 50.5508,24.7891 C49.9414,25.1875 49.1914,25.3867 48.3008,25.3867 Z M49.918,12.0273 C49.7773,12.0273 49.5078,12.1797 49.1094,12.4844 C48.7344,12.7656 48.3242,13.1875 47.8789,13.75 C47.457,14.3125 47.0586,14.9922 46.6836,15.7891 C46.332,16.5625 46.1094,17.4414 46.0156,18.4258 C47.4219,18.0977 48.5352,17.582 49.3555,16.8789 C50.1758,16.1758 50.5859,15.1445 50.5859,13.7852 C50.5859,13.1055 50.5039,12.6484 50.3398,12.4141 C50.1758,12.1562 50.0352,12.0273 49.918,12.0273 Z M64.7891,14.207 C64.7891,14.5352 64.6953,14.875 64.5078,15.2266 C64.3438,15.5547 64.1328,15.8711 63.875,16.1758 C63.6172,16.4805 63.3242,16.75 62.9961,16.9844 C62.6914,17.1953 62.3984,17.3242 62.1172,17.3711 C62.3047,16.6445 62.3633,16.082 62.293,15.6836 C62.2227,15.2852 62.1055,14.9922 61.9414,14.8047 C61.7539,14.5938 61.5195,14.4766 61.2383,14.4531 C60.8164,14.4531 60.4062,14.6992 60.0078,15.1914 C59.6328,15.6602 59.3047,16.2461 59.0234,16.9492 C58.7422,17.6289 58.5195,18.3672 58.3555,19.1641 C58.1914,19.9375 58.1094,20.6406 58.1094,21.2734 C58.0859,21.7188 58.0977,22.1523 58.1445,22.5742 C58.168,22.9258 58.2031,23.2891 58.25,23.6641 C58.3203,24.0391 58.4141,24.332 58.5312,24.543 C58.3906,24.6602 58.1562,24.8008 57.8281,24.9648 C57.5234,25.1289 57.1953,25.2344 56.8438,25.2812 C56.5156,25.3281 56.2109,25.2695 55.9297,25.1055 C55.6719,24.9414 55.5312,24.5898 55.5078,24.0508 C55.4609,23.5352 55.4258,22.9609 55.4023,22.3281 C55.4023,21.6719 55.4023,21.0273 55.4023,20.3945 C55.4258,19.7383 55.4492,19.0938 55.4727,18.4609 C55.4961,17.8281 55.5312,17.2422 55.5781,16.7031 C55.625,15.6719 55.6484,14.875 55.6484,14.3125 C55.6484,13.75 55.6367,13.2109 55.6133,12.6953 C55.6133,12.6016 55.7656,12.4727 56.0703,12.3086 C56.3984,12.1211 56.75,11.957 57.125,11.8164 C57.5234,11.6758 57.8867,11.5938 58.2148,11.5703 C58.543,11.5469 58.707,11.6172 58.707,11.7812 C58.707,12.0391 58.6719,12.5547 58.6016,13.3281 C58.5547,14.0781 58.4844,14.8633 58.3906,15.6836 C58.5547,15.2383 58.7656,14.7578 59.0234,14.2422 C59.3047,13.7266 59.6211,13.2461 59.9727,12.8008 C60.3242,12.3555 60.7227,11.9922 61.168,11.7109 C61.6133,11.4062 62.1055,11.2539 62.6445,11.2539 C63.0664,11.2539 63.4062,11.3828 63.6641,11.6406 C63.9453,11.8984 64.168,12.1914 64.332,12.5195 C64.4961,12.8477 64.6133,13.1758 64.6836,13.5039 C64.7539,13.832 64.7891,14.0664 64.7891,14.207 Z M70.4492,23.1719 C70.6602,23.1719 70.9414,22.7969 71.293,22.0469 C71.6445,21.2969 71.9727,20.3945 72.2773,19.3398 C72.6055,18.2852 72.8633,17.1953 73.0508,16.0703 C73.2617,14.9453 73.3203,13.9961 73.2266,13.2227 C73.1797,12.9648 73.1094,12.7539 73.0156,12.5898 C72.9453,12.4258 72.8516,12.25 72.7344,12.0625 C72.875,11.875 73.0508,11.7344 73.2617,11.6406 C73.4727,11.5234 73.6719,11.4414 73.8594,11.3945 C74.0938,11.3242 74.3281,11.2773 74.5625,11.2539 C75.125,11.2305 75.5352,11.3242 75.793,11.5352 C75.9336,11.6758 76.0039,12.0039 76.0039,12.5195 C76.0039,13.0352 75.9453,13.6445 75.8281,14.3477 C75.7344,15.0273 75.5938,15.7539 75.4062,16.5273 C75.2422,17.2773 75.0547,17.9688 74.8438,18.6016 C74.6328,19.2109 74.375,19.8789 74.0703,20.6055 C73.7656,21.3086 73.4492,21.9883 73.1211,22.6445 C72.793,23.2773 72.4648,23.8281 72.1367,24.2969 C71.8086,24.7422 71.5273,25.0117 71.293,25.1055 C70.8008,25.293 70.3086,25.3867 69.8164,25.3867 C69.3477,25.3867 69.0547,25.3281 68.9375,25.2109 C68.8906,25.1641 68.7852,25 68.6211,24.7188 C68.457,24.4375 68.2695,24.0742 68.0586,23.6289 C67.8711,23.1836 67.6602,22.668 67.4258,22.082 C67.2148,21.4727 67.0273,20.8281 66.8633,20.1484 C66.6992,19.4688 66.582,18.7305 66.5117,17.9336 C66.4414,17.1367 66.3594,16.3633 66.2656,15.6133 C66.1953,14.8398 66.0898,14.125 65.9492,13.4688 C65.8086,12.8125 65.5977,12.2734 65.3164,11.8516 L66.9688,11.1836 C67.1094,11.1133 67.2734,11.0547 67.4609,11.0078 C67.6484,10.9375 67.8359,10.9141 68.0234,10.9375 C68.2109,10.9609 68.375,11.0547 68.5156,11.2188 C68.6797,11.3594 68.7852,11.6172 68.832,11.9922 C68.8789,12.4141 68.9141,12.918 68.9375,13.5039 C68.9844,14.0898 69.0195,14.6992 69.043,15.332 C69.0898,15.9648 69.1367,16.5977 69.1836,17.2305 C69.2305,17.8398 69.2773,18.3906 69.3242,18.8828 C69.3711,19.3984 69.4297,19.9141 69.5,20.4297 C69.5938,20.9453 69.6875,21.4023 69.7812,21.8008 C69.8984,22.1992 70.0039,22.5273 70.0977,22.7852 C70.2148,23.043 70.332,23.1719 70.4492,23.1719 Z M78.0781,12.5547 C78.0781,12.4141 78.2656,12.2617 78.6406,12.0977 C79.0156,11.9336 79.4258,11.8047 79.8711,11.7109 C80.3398,11.5938 80.7617,11.5352 81.1367,11.5352 C81.5352,11.5117 81.7344,11.5938 81.7344,11.7812 C81.7344,12.1328 81.7109,12.6367 81.6641,13.293 C81.6172,13.9258 81.5586,14.6055 81.4883,15.332 C81.418,16.0352 81.3477,16.75 81.2773,17.4766 C81.207,18.1797 81.1602,18.7773 81.1367,19.2695 C81.0898,19.7852 81.043,20.3477 80.9961,20.957 C80.9492,21.4727 80.9141,22.0469 80.8906,22.6797 C80.8672,23.3125 80.8672,23.957 80.8906,24.6133 C80.8906,24.7305 80.7734,24.8477 80.5391,24.9648 C80.3047,25.082 80.0469,25.1641 79.7656,25.2109 C79.4844,25.2812 79.2148,25.3164 78.957,25.3164 C78.6992,25.3164 78.5586,25.2695 78.5352,25.1758 C78.4883,25.082 78.4414,24.918 78.3945,24.6836 C78.3477,24.4492 78.3008,24.1211 78.2539,23.6992 C78.207,23.2539 78.1719,22.6914 78.1484,22.0117 C78.125,21.3086 78.1367,20.4648 78.1836,19.4805 C78.2773,17.5352 78.2891,16.0352 78.2188,14.9805 C78.1484,13.9023 78.1016,13.0938 78.0781,12.5547 Z M80.5391,5.5586 C81.0078,5.5586 81.4531,5.6992 81.875,5.9805 C82.2969,6.2617 82.5078,6.6367 82.5078,7.1055 C82.5078,7.457 82.4141,7.7969 82.2266,8.125 C82.0625,8.4531 81.8516,8.7461 81.5938,9.0039 C81.3359,9.2617 81.043,9.4727 80.7148,9.6367 C80.3867,9.7773 80.082,9.8477 79.8008,9.8477 C79.4258,9.8477 79.1211,9.7891 78.8867,9.6719 C78.6523,9.5312 78.4648,9.3789 78.3242,9.2148 C78.207,9.0273 78.125,8.8281 78.0781,8.6172 C78.0312,8.4062 78.0078,8.207 78.0078,8.0195 C78.0078,7.7852 78.043,7.5273 78.1133,7.2461 C78.1836,6.9414 78.3125,6.6719 78.5,6.4375 C78.6875,6.1797 78.9453,5.9687 79.2734,5.8047 C79.6016,5.6406 80.0234,5.5586 80.5391,5.5586 Z M79.6602,8.8281 C79.8008,8.8281 79.9531,8.7812 80.1172,8.6875 C80.3047,8.5703 80.4688,8.4414 80.6094,8.3008 C80.7734,8.1602 80.9023,8.0078 80.9961,7.8438 C81.1133,7.6797 81.1719,7.5391 81.1719,7.4219 C81.1719,7.2344 81.0781,7.1406 80.8906,7.1406 C80.7734,7.1406 80.6211,7.1875 80.4336,7.2812 C80.2695,7.375 80.1055,7.4922 79.9414,7.6328 C79.7773,7.75 79.6367,7.8906 79.5195,8.0547 C79.4258,8.1953 79.3789,8.3359 79.3789,8.4766 C79.3789,8.7109 79.4727,8.8281 79.6602,8.8281 Z M94.3203,23.207 C94.3672,23.3711 94.4375,23.5234 94.5312,23.6641 C94.6016,23.7812 94.6953,23.8984 94.8125,24.0156 C94.9531,24.1094 95.1172,24.168 95.3047,24.1914 C95.1406,24.5195 94.9766,24.7422 94.8125,24.8594 C94.7188,24.9297 94.6367,24.9766 94.5664,25 C94.3555,25.0703 94.0391,25.1055 93.6172,25.1055 C93.1953,25.1055 92.7852,24.9766 92.3867,24.7188 C92.2461,24.6016 92.1172,24.4258 92,24.1914 C91.8828,24.0039 91.7773,23.7461 91.6836,23.418 C91.6133,23.0664 91.5547,22.6211 91.5078,22.082 C91.1797,22.7852 90.8047,23.3477 90.3828,23.7695 C89.9844,24.168 89.5859,24.4609 89.1875,24.6484 C88.7422,24.9062 88.2852,25.0586 87.8164,25.1055 C87.2305,25.1523 86.668,25.0586 86.1289,24.8242 C85.6133,24.5664 85.168,24.1914 84.793,23.6992 C84.4414,23.1836 84.1719,22.5625 83.9844,21.8359 C83.7969,21.1094 83.7383,20.2891 83.8086,19.375 C83.8789,18.4141 84.0664,17.5586 84.3711,16.8086 C84.6758,16.0586 85.0391,15.3906 85.4609,14.8047 C85.8828,14.2188 86.3281,13.7266 86.7969,13.3281 C87.2656,12.9062 87.7109,12.5664 88.1328,12.3086 C88.5781,12.0273 88.9531,11.8281 89.2578,11.7109 C89.5859,11.5703 89.7969,11.4883 89.8906,11.4648 C90.1484,11.3945 90.3711,11.3711 90.5586,11.3945 C90.7461,11.418 90.9102,11.5234 91.0508,11.7109 C91.0977,11.7812 91.1562,11.8633 91.2266,11.957 C91.2734,12.0508 91.332,12.1797 91.4023,12.3438 C91.4727,12.4844 91.5312,12.6484 91.5781,12.8359 C91.0156,13.0938 90.4883,13.3867 89.9961,13.7148 C89.5039,14.0195 89.0469,14.3945 88.625,14.8398 C88.2266,15.2852 87.875,15.8242 87.5703,16.457 C87.2656,17.0898 87.0312,17.8633 86.8672,18.7773 C86.6328,19.9258 86.6914,20.8516 87.043,21.5547 C87.418,22.2578 87.9219,22.5508 88.5547,22.4336 C88.9297,22.3164 89.293,22.0938 89.6445,21.7656 C89.9492,21.4844 90.2656,21.0625 90.5938,20.5 C90.9453,19.9375 91.2734,19.1641 91.5781,18.1797 C91.6953,16.7734 91.7891,15.6719 91.8594,14.875 C91.9531,14.0547 92.0352,13.4336 92.1055,13.0117 C92.1992,12.5195 92.2695,12.1914 92.3164,12.0273 C92.3867,11.9102 92.5273,11.8047 92.7383,11.7109 C92.9492,11.5938 93.1836,11.5 93.4414,11.4297 C93.6992,11.3594 93.9336,11.3242 94.1445,11.3242 C94.3555,11.3008 94.4961,11.3008 94.5664,11.3242 C94.6133,11.3477 94.6367,11.6406 94.6367,12.2031 C94.6367,12.7422 94.6133,13.4336 94.5664,14.2773 C94.543,15.0977 94.5078,16 94.4609,16.9844 C94.4141,17.9453 94.3672,18.8594 94.3203,19.7266 C94.2969,20.5938 94.2734,21.3555 94.25,22.0117 C94.25,22.6445 94.2734,23.043 94.3203,23.207 Z" id="Shape"></path>
        </g>
    </g>
</svg>